PathFileType	4	(X/Y/Z)	../Python\walking\Walking12\task.trc
DataRate	CameraRate	NumFrames	NumMarkers	Units	OrigDataRate	OrigDataStartFrame	OrigNumFrames
200.000000	200.000000	4	30	mm	200.000000	106	426
Frame#	Time	CLAV			STRN			RASI			LASI			RTH1			RTH2			RTH3			RTB1			RTB2			RTB3			RD5M			RTOE			LTH1			LTH3			LTB1			LTB2			LTB3			LTOE			LD5M			LTH2			RHEE			T10			PE03			RPSI			PE02			LPSI			PE01			C7			RBAK			LHEE			
		X1	Y1	Z1	X2	Y2	Z2	X3	Y3	Z3	X4	Y4	Z4	X5	Y5	Z5	X6	Y6	Z6	X7	Y7	Z7	X8	Y8	Z8	X9	Y9	Z9	X10	Y10	Z10	X11	Y11	Z11	X12	Y12	Z12	X13	Y13	Z13	X14	Y14	Z14	X15	Y15	Z15	X16	Y16	Z16	X17	Y17	Z17	X18	Y18	Z18	X19	Y19	Z19	X20	Y20	Z20	X21	Y21	Z21	X22	Y22	Z22	X23	Y23	Z23	X24	Y24	Z24	X25	Y25	Z25	X26	Y26	Z26	X27	Y27	Z27	X28	Y28	Z28	X29	Y29	Z29	X30	Y30	Z30	

107	0.53	964.2490234375005	1414.98974609375	112.8577346801758	1009.831848144532	1222.263305664063	127.9431991577149	972.0768432617192	1026.293212890625	277.8336791992189	1000.77783203125	1009.664245605469	6.262778282165531	904.9088745117192	760.0532836914065	301.5482788085939	844.9409790039067	744.4418945312502	299.3939208984376	858.2585449218755	698.8908691406252	282.1544494628907	803.1188354492192	362.1248779296876	216.7951049804689	752.4450683593752	326.8605041503907	217.6419982910157	779.7831420898442	287.3714904785157	202.9406738281251	794.4771118164067	17.43279266357423	198.9697113037111	857.220825195313	30.29411125183107	155.6482391357422	1025.141235351563	710.9995117187502	-33.81922912597658	1078.025512695313	653.4681396484377	-20.89044189453126	1119.7900390625	369.9827575683595	-0.1374926418066025	1100.766845703125	326.2222290039064	13.98363780975343	1156.41162109375	300.3579406738282	3.633904218673708	1343.2548828125	80.30598449707034	53.84355545043948	1309.66015625	52.73144912719729	18.02559852600098	1017.535339355469	664.9919433593752	-16.58132362365723	640.343688964844	36.64702606201173	109.1426239013672	786.8412475585942	1259.355834960938	117.296257019043	815.9755249023442	1048.512939453125	99.93896484375006	817.484252929688	1065.22705078125	173.6395874023438	814.0187377929692	1051.385986328125	151.0609588623047	823.9853515625005	1059.69091796875	74.50766754150393	828.929321289063	1109.654418945313	121.9158096313477	859.2731323242192	1514.473999023438	98.85916137695318	835.452514648438	1434.286376953125	276.7461547851564	1145.375854492188	36.31472015380861	78.63098907470706	
108	0.535	970.7277832031255	1413.78271484375	112.9060211181641	1016.20263671875	1220.99169921875	128.0261535644532	978.194458007813	1025.152221679688	277.9273681640626	1007.659240722657	1008.438659667969	6.243158340454105	910.0037231445317	759.092468261719	301.522674560547	849.9445190429692	743.7989501953127	299.4856567382814	862.999389648438	698.1843872070315	282.1505432128907	805.4956665039067	361.8504333496095	216.5665130615236	754.5581665039065	326.9437866210939	217.2823791503907	781.622924804688	287.255828857422	202.6271514892579	794.361450195313	17.57654190063477	198.7085876464845	857.2687988281255	30.2568988800049	155.6178283691407	1029.881591796875	708.6894531250002	-33.81157302856447	1082.483154296875	650.8086547851565	-21.20150566101075	1129.379028320313	368.2091369628907	-0.06348894536495212	1111.6259765625	323.8852844238282	13.9256763458252	1168.042846679688	299.6588439941407	3.83907985687256	1361.400146484375	84.50875091552737	55.66123962402347	1328.92138671875	55.73024368286136	19.73927688598634	1022.138793945313	662.8225708007815	-16.20405578613282	640.5373535156252	37.35020446777345	108.604965209961	793.1491088867192	1258.275390625	117.2584075927735	822.4893188476567	1047.297607421875	99.56365966796881	823.779663085938	1064.052856445313	173.2650604248047	820.3935546875005	1050.211791992188	150.6827545166016	830.5939941406255	1058.442749023438	74.14674377441409	835.3452758789067	1108.466430664063	121.534034729004	865.7847290039067	1513.362060546875	98.86941528320318	841.909057617188	1433.13818359375	276.8122558593751	1164.58984375	35.47134017944337	78.99265289306643	
109	0.54	977.2297363281255	1412.573608398438	112.9369201660157	1022.611206054688	1219.71337890625	128.0962829589844	984.3582153320317	1024.013061523438	278.0280761718751	1014.572204589844	1007.187866210938	6.217564582824711	915.1028442382817	758.1495361328127	301.5299377441407	854.9547729492192	743.1765747070315	299.5797424316407	867.7512817382817	697.498718261719	282.1581115722657	807.898071289063	361.6108703613282	216.3704681396486	756.6928710937502	327.0715942382814	216.9327545166017	783.4807739257817	287.1804199218751	202.3373260498048	794.2410278320317	17.71563911437989	198.4490203857423	857.3134765625005	30.21965217590333	155.5935974121094	1034.430908203125	706.274597167969	-33.80455017089845	1086.734619140625	648.0310668945315	-21.5260238647461	1138.9267578125	366.5564575195314	-0.04126000776886941	1122.388916015625	321.7228393554689	13.77939796447755	1179.51611328125	299.088836669922	4.051487445831301	1378.951904296875	88.83239746093753	57.51808547973636	1347.588500976563	58.89964675903323	21.48393440246583	1026.561401367188	660.5608520507815	-15.78879833221436	640.740905761719	38.12933349609376	108.0850524902344	799.4928588867192	1257.17919921875	117.2059402465821	829.0397949218755	1046.069213867188	99.18138885498053	830.1187133789067	1062.865112304688	172.8825836181641	826.8110961914067	1049.025756835938	150.2987518310547	837.2346801757817	1057.181762695313	73.77684020996097	841.8012695312505	1107.265625	121.1438293457032	872.3114624023442	1512.2451171875	98.86431884765631	848.3861694335942	1431.974243164063	276.8623657226564	1183.275024414063	34.94043350219728	79.37928771972659	
110	0.545	983.7554321289067	1411.367309570313	112.9498367309571	1029.05908203125	1218.433837890625	128.1537628173829	990.5717773437505	1022.878356933594	278.1358947753907	1021.515502929688	1005.918640136719	6.185705661773685	920.2050781250005	757.2293701171877	301.5718994140626	859.970581054688	742.5803833007815	299.6735839843751	872.5131225585942	696.8391113281252	282.1770019531251	810.329711914063	361.4093322753907	216.2096252441407	758.8524169921877	327.2478332519532	216.5989990234376	785.359741210938	287.148651123047	202.0761108398439	794.1178588867192	17.84856986999512	198.1948699951173	857.354370117188	30.18235778808595	155.5758209228516	1038.827880859375	703.791198730469	-33.80290985107423	1090.819946289063	645.179382324219	-21.85444259643555	1148.414916992188	365.0268859863282	-0.06265576183795932	1133.030395507813	319.7373962402345	13.56263732910157	1190.804443359375	298.636199951172	4.274086475372316	1395.866333007813	93.21655273437503	59.39583969116214	1365.602294921875	62.18142700195315	23.24590682983399	1030.842163085938	658.2400512695315	-15.34955787658692	640.9539184570315	38.98981857299806	107.5934371948243	805.8745117187505	1256.071044921875	117.1391754150391	835.6287231445317	1044.834228515625	98.79460144042974	836.5048828125005	1061.669311523438	172.4946746826172	833.2741088867192	1047.833374023438	149.9113311767579	843.9078979492192	1055.914184570313	73.40037536621097	848.2998046875005	1106.057983398438	120.7482604980469	878.8535766601567	1511.127563476563	98.84304809570318	854.884155273438	1430.799560546875	276.8955993652345	1201.367797851563	34.68077468872072	79.80941009521487	
